<mxfile host="Electron" modified="2025-03-10T07:45:01.947Z" agent="Mozilla/5.0 (Windows NT 10.0; Win64; x64) AppleWebKit/537.36 (KHTML, like Gecko) draw.io/22.1.18 Chrome/120.0.6099.199 Electron/28.1.2 Safari/537.36" etag="DD5SLeMK-LnHwZ4U_25S" version="22.1.18" type="device">
  <diagram name="Page-1" id="9n51V0birsyVbleR57p-">
    <mxGraphModel dx="1050" dy="621" grid="1" gridSize="10" guides="1" tooltips="1" connect="1" arrows="1" fold="1" page="1" pageScale="1" pageWidth="827" pageHeight="1169" math="0" shadow="0">
      <root>
        <mxCell id="0" />
        <mxCell id="1" parent="0" />
        <mxCell id="2BwICHEU_G4UWTc_6JAI-1" value="&lt;span style=&quot;font-size: 14px;&quot;&gt;&lt;b&gt;&amp;nbsp; Report Excel-generation Diagram&lt;/b&gt;&lt;/span&gt;" style="rounded=0;whiteSpace=wrap;html=1;fillColor=#f5f5f5;fontColor=#333333;strokeColor=#666666;align=left;" parent="1" vertex="1">
          <mxGeometry x="10" width="650" height="30" as="geometry" />
        </mxCell>
        <mxCell id="2BwICHEU_G4UWTc_6JAI-2" value="Â© Sindre Ditlefsen 09.03.2025" style="text;html=1;strokeColor=none;fillColor=none;align=right;verticalAlign=middle;whiteSpace=wrap;rounded=0;" parent="1" vertex="1">
          <mxGeometry x="410" width="250" height="30" as="geometry" />
        </mxCell>
        <mxCell id="Z0VvkoSQmPEsNrfMpDx6-4" value="" style="endArrow=classic;html=1;rounded=0;" parent="1" edge="1">
          <mxGeometry width="50" height="50" relative="1" as="geometry">
            <mxPoint x="60" y="160" as="sourcePoint" />
            <mxPoint x="170" y="160" as="targetPoint" />
          </mxGeometry>
        </mxCell>
        <mxCell id="Z0VvkoSQmPEsNrfMpDx6-13" value="" style="endArrow=classic;html=1;rounded=0;exitX=1;exitY=0.5;exitDx=0;exitDy=0;startArrow=classic;startFill=1;" parent="1" edge="1">
          <mxGeometry width="50" height="50" relative="1" as="geometry">
            <mxPoint x="320" y="163.5" as="sourcePoint" />
            <mxPoint x="560" y="164" as="targetPoint" />
          </mxGeometry>
        </mxCell>
        <mxCell id="_a0VCblpvbPavzqSTUhA-4" value="Get Sensors List" style="edgeLabel;html=1;align=center;verticalAlign=middle;resizable=0;points=[];" vertex="1" connectable="0" parent="Z0VvkoSQmPEsNrfMpDx6-13">
          <mxGeometry x="-0.19" relative="1" as="geometry">
            <mxPoint x="27" as="offset" />
          </mxGeometry>
        </mxCell>
        <mxCell id="Z0VvkoSQmPEsNrfMpDx6-14" value="Scheduler" style="shape=image;verticalLabelPosition=bottom;labelBackgroundColor=default;verticalAlign=top;aspect=fixed;imageAspect=0;image=data:image/png,iVBORw0KGgoAAAANSUhEUgAAADAAAAAwCAYAAABXAvmHAAAAwnpUWHRSYXcgcHJvZmlsZSB0eXBlIGV4aWYAAHjabVBBEsMgCLzzij5BAQk8xzTpTH/Q5xeVpLHtzrhZWWaDwP56PuDWgJmBy6JiIsnBxobVhaaB2jkn7txBYfl9qsNpoJfo06kS/Uc9nwHjU12VS5Dew1hnwzjy9SsIY7I2UdNbBFkEEQ4jR0Adz0piulyfsO5pho4DjVjnsX/ui29vK/4fQtwpU3ImkjEAtVOAqgvqbN7oTa6ZxLlQjjBfyL89HYA33K5ZEsnsw40AAAGDaUNDUElDQyBwcm9maWxlAAB4nH2RPUjDQBzFX1OlrVQc7CDikKF1souKOJYqFsFCaSu06mBy6Rc0MSQpLo6Ca8HBj8Wqg4uzrg6ugiD4AeIuOCm6SIn/SwotYjw47se7e4+7d4DQqjPV7EsAqmYZ2VRSLBRXxMAr/AghiBhCEjP1dG4hD8/xdQ8fX+/iPMv73J9jUCmZDPCJxAmmGxbxOvHMpqVz3ieOsKqkEJ8TTxh0QeJHrssuv3GuOCzwzIiRz84RR4jFSg/LPcyqhko8TRxVVI3yhYLLCuctzmq9wTr35C8Ml7TlHNdpjiGFRaSRgQgZDdRQh4U4rRopJrK0n/Twjzr+DLlkctXAyDGPDaiQHD/4H/zu1ixPTbpJ4STQ/2LbHzEgsAu0m7b9fWzb7RPA/wxcaV3/RguY/SS92dWiR8DQNnBx3dXkPeByBxh50iVDciQ/TaFcBt7P6JuKwPAtMLDq9tbZx+kDkKeulm6Ag0NgvELZax7vDvb29u+ZTn8/ZTVyobgFxgIAAA12aVRYdFhNTDpjb20uYWRvYmUueG1wAAAAAAA8P3hwYWNrZXQgYmVnaW49Iu+7vyIgaWQ9Ilc1TTBNcENlaGlIenJlU3pOVGN6a2M5ZCI/Pgo8eDp4bXBtZXRhIHhtbG5zOng9ImFkb2JlOm5zOm1ldGEvIiB4OnhtcHRrPSJYTVAgQ29yZSA0LjQuMC1FeGl2MiI+CiA8cmRmOlJERiB4bWxuczpyZGY9Imh0dHA6Ly93d3cudzMub3JnLzE5OTkvMDIvMjItcmRmLXN5bnRheC1ucyMiPgogIDxyZGY6RGVzY3JpcHRpb24gcmRmOmFib3V0PSIiCiAgICB4bWxuczp4bXBNTT0iaHR0cDovL25zLmFkb2JlLmNvbS94YXAvMS4wL21tLyIKICAgIHhtbG5zOnN0RXZ0PSJodHRwOi8vbnMuYWRvYmUuY29tL3hhcC8xLjAvc1R5cGUvUmVzb3VyY2VFdmVudCMiCiAgICB4bWxuczpkYz0iaHR0cDovL3B1cmwub3JnL2RjL2VsZW1lbnRzLzEuMS8iCiAgICB4bWxuczpHSU1QPSJodHRwOi8vd3d3LmdpbXAub3JnL3htcC8iCiAgICB4bWxuczp0aWZmPSJodHRwOi8vbnMuYWRvYmUuY29tL3RpZmYvMS4wLyIKICAgIHhtbG5zOnhtcD0iaHR0cDovL25zLmFkb2JlLmNvbS94YXAvMS4wLyIKICAgeG1wTU06RG9jdW1lbnRJRD0iZ2ltcDpkb2NpZDpnaW1wOmE0NWIzMTc4LTRlZDgtNDU1Ny04MDU4LWUyOGE0ZTgzNGJjZSIKICAgeG1wTU06SW5zdGFuY2VJRD0ieG1wLmlpZDpjYzZlMWU4ZC03MmQzLTRmYjgtYmUyZS0xMWM0YjM3NmNmMTYiCiAgIHhtcE1NOk9yaWdpbmFsRG9jdW1lbnRJRD0ieG1wLmRpZDplZGM0MTY0Ni04Y2U0LTQwZTItODU2MS0wOTJjOWQ0NmRkODUiCiAgIGRjOkZvcm1hdD0iaW1hZ2UvcG5nIgogICBHSU1QOkFQST0iMi4wIgogICBHSU1QOlBsYXRmb3JtPSJXaW5kb3dzIgogICBHSU1QOlRpbWVTdGFtcD0iMTc0MTUxMzYxMjc5MzE1NiIKICAgR0lNUDpWZXJzaW9uPSIyLjEwLjM2IgogICB0aWZmOk9yaWVudGF0aW9uPSIxIgogICB4bXA6Q3JlYXRvclRvb2w9IkdJTVAgMi4xMCIKICAgeG1wOk1ldGFkYXRhRGF0ZT0iMjAyNTowMzowOVQxMDo0Njo1MSswMTowMCIKICAgeG1wOk1vZGlmeURhdGU9IjIwMjU6MDM6MDlUMTA6NDY6NTErMDE6MDAiPgogICA8eG1wTU06SGlzdG9yeT4KICAgIDxyZGY6U2VxPgogICAgIDxyZGY6bGkKICAgICAgc3RFdnQ6YWN0aW9uPSJzYXZlZCIKICAgICAgc3RFdnQ6Y2hhbmdlZD0iLyIKICAgICAgc3RFdnQ6aW5zdGFuY2VJRD0ieG1wLmlpZDpmYzVhZmQ0Mi0yMDE4LTQ2ZGUtYjJjNy0yOTg5MjJkNTIzOTYiCiAgICAgIHN0RXZ0OnNvZnR3YXJlQWdlbnQ9IkdpbXAgMi4xMCAoV2luZG93cykiCiAgICAgIHN0RXZ0OndoZW49IjIwMjUtMDMtMDlUMTA6NDY6NTIiLz4KICAgIDwvcmRmOlNlcT4KICAgPC94bXBNTTpIaXN0b3J5PgogIDwvcmRmOkRlc2NyaXB0aW9uPgogPC9yZGY6UkRGPgo8L3g6eG1wbWV0YT4KICAgICAgICAgICAgICAgICAgICAgICAgICAgICAgICAgICAgICAgICAgICAgICAgICAgICAgICAgICAgICAgICAgICAgICAgICAgICAgICAgICAgICAgICAgICAgICAgICAgIAogICAgICAgICAgICAgICAgICAgICAgICAgICAgICAgICAgICAgICAgICAgICAgICAgICAgICAgICAgICAgICAgICAgICAgICAgICAgICAgICAgICAgICAgICAgICAgICAgICAgCiAgICAgICAgICAgICAgICAgICAgICAgICAgICAgICAgICAgICAgICAgICAgICAgICAgICAgICAgICAgICAgICAgICAgICAgICAgICAgICAgICAgICAgICAgICAgICAgICAgICAKICAgICAgICAgICAgICAgICAgICAgICAgICAgICAgICAgICAgICAgICAgICAgICAgICAgICAgICAgICAgICAgICAgICAgICAgICAgICAgICAgICAgICAgICAgICAgICAgICAgIAogICAgICAgICAgICAgICAgICAgICAgICAgICAgICAgICAgICAgICAgICAgICAgICAgICAgICAgICAgICAgICAgICAgICAgICAgICAgICAgICAgICAgICAgICAgICAgICAgICAgCiAgICAgICAgICAgICAgICAgICAgICAgICAgICAgICAgICAgICAgICAgICAgICAgICAgICAgICAgICAgICAgICAgICAgICAgICAgICAgICAgICAgICAgICAgICAgICAgICAgICAKICAgICAgICAgICAgICAgICAgICAgICAgICAgICAgICAgICAgICAgICAgICAgICAgICAgICAgICAgICAgICAgICAgICAgICAgICAgICAgICAgICAgICAgICAgICAgICAgICAgIAogICAgICAgICAgICAgICAgICAgICAgICAgICAgICAgICAgICAgICAgICAgICAgICAgICAgICAgICAgICAgICAgICAgICAgICAgICAgICAgICAgICAgICAgICAgICAgICAgICAgCiAgICAgICAgICAgICAgICAgICAgICAgICAgICAgICAgICAgICAgICAgICAgICAgICAgICAgICAgICAgICAgICAgICAgICAgICAgICAgICAgICAgICAgICAgICAgICAgICAgICAKICAgICAgICAgICAgICAgICAgICAgICAgICAgICAgICAgICAgICAgICAgICAgICAgICAgICAgICAgICAgICAgICAgICAgICAgICAgICAgICAgICAgICAgICAgICAgICAgICAgIAogICAgICAgICAgICAgICAgICAgICAgICAgICAgICAgICAgICAgICAgICAgICAgICAgICAgICAgICAgICAgICAgICAgICAgICAgICAgICAgICAgICAgICAgICAgICAgICAgICAgCiAgICAgICAgICAgICAgICAgICAgICAgICAgICAgICAgICAgICAgICAgICAgICAgICAgICAgICAgICAgICAgICAgICAgICAgICAgICAgICAgICAgICAgICAgICAgICAgICAgICAKICAgICAgICAgICAgICAgICAgICAgICAgICAgICAgICAgICAgICAgICAgICAgICAgICAgICAgICAgICAgICAgICAgICAgICAgICAgICAgICAgICAgICAgICAgICAgICAgICAgIAogICAgICAgICAgICAgICAgICAgICAgICAgICAgICAgICAgICAgICAgICAgICAgICAgICAgICAgICAgICAgICAgICAgICAgICAgICAgICAgICAgICAgICAgICAgICAgICAgICAgCiAgICAgICAgICAgICAgICAgICAgICAgICAgICAgICAgICAgICAgICAgICAgICAgICAgICAgICAgICAgICAgICAgICAgICAgICAgICAgICAgICAgICAgICAgICAgICAgICAgICAKICAgICAgICAgICAgICAgICAgICAgICAgICAgICAgICAgICAgICAgICAgICAgICAgICAgICAgICAgICAgICAgICAgICAgICAgICAgICAgICAgICAgICAgICAgICAgICAgICAgIAogICAgICAgICAgICAgICAgICAgICAgICAgICAgICAgICAgICAgICAgICAgICAgICAgICAgICAgICAgICAgICAgICAgICAgICAgICAgICAgICAgICAgICAgICAgICAgICAgICAgCiAgICAgICAgICAgICAgICAgICAgICAgICAgICAgICAgICAgICAgICAgICAgICAgICAgICAgICAgICAgICAgICAgICAgICAgICAgICAgICAgICAgICAgICAgICAgICAgICAgICAKICAgICAgICAgICAgICAgICAgICAgICAgICAgICAgICAgICAgICAgICAgICAgICAgICAgICAgICAgICAgICAgICAgICAgICAgICAgICAgICAgICAgICAgICAgICAgICAgICAgIAogICAgICAgICAgICAgICAgICAgICAgICAgICAgICAgICAgICAgICAgICAgICAgICAgICAgICAgICAgICAgICAgICAgICAgICAgICAgICAgICAgICAgICAgICAgICAgICAgICAgCiAgICAgICAgICAgICAgICAgICAgICAgICAgIAo8P3hwYWNrZXQgZW5kPSJ3Ij8+DNB3DwAAAAZiS0dEAAAASwC6rjiDzAAAAAlwSFlzAAALEwAACxMBAJqcGAAAAAd0SU1FB+kDCQkuNOJVE6YAAAZBSURBVGje7Zl7bFNVHMc/p+26cVfYhlMeQaKBgGQDEpMqhkdiwVdEgcaIJAbFSmEkPPQPNUwiGksEJS4qCBcrBhMEg0UDghIdCYhiSjCMh5CIGpnicwxW2vV5/cOzeTn2vY7EZL+kf5zTc8/9fn+v8/udC33SJ1dXPgrGRG/tHQjGROBIYftbCth8SiAYO56EM4FgbEYvgJ8GnMLgZCAYuyPf50Sem08FdgDVcupX4Ca3034x3XqvPyykcrr2N4CU7tGMDPuXA6eBG+RUBzDH7bR/3GMCEvwHQJVp+gIwyu20/2kCXAdMASYA9cAwoL8JUCtwAjgMHABOdhEKBGMacBYYbHrHZWB2LhIiB3iXBF9tmk4BK9xO+yqvP9wPmAUsA8YB5XlaPgq0AE3ATt2jRQLBmBdYB9hM6zqAh9xO+56CCQSCsduBgALeAFb+3m6sOvpT8h7gRQm8J9ICPDt6kGXPjYMsi4BXAatCYrbbad+bN4FAMGYBvgVGmaaTwMr9pxJvRBOsBh7PkQSi0g0AHIA9y9oU8JbNwtPT6m2PAK8olvgRGOl22pPqg7YslhmogH9u/6nElmiCT4Bb0zwTBr4CPgQOAT8DMfmfHRgOTJIudwtQoWRDbyLF+M9PJB6YWm8TwMsmfAMyKTubCy0C1srhiv2nEtujCfbKYDVLJ7AReFP3aGfy8RmvP1wHLAbmpbHMyTIrd0+ts7mBl+Tck26nfUMxQXwNwL7jiUTK4NM0mj8CeHWP9k0xzu/1h2+T5Mcqf31tEdx151ibFRBup/2votOoTJEbAK8SzO8D83WP1pHteZcvVA1EmxsdkQz71wBbgOnKXzqwMNPZUQiB+6RfmwN2GzBP92idOcDbgHPAJZkUdgPbmhsdIeUdlcB24F4lsGfqHm1X0QRknj+spMog4NI9WigXeUkgoiSLc8ByYGtzoyOlWOKgEmMtwATdo0WKrYVmKeAj0m1CPcj71wPvAOtdvlD3wad7tAvAAiBuWjtOYii8mJO+v0yZXq97tGMlqN2sEmyTyxeymEgckvFglmUSS8EWqFO0f1kGcyllPjBHmXtdHoJmK9QVQ2CKUtsc1D3adyUmYAVWuXyhSpMVjgFHTWvKJZaCCUxQxjt7qY8ZDjyo9k05sGQnIH2uXpk+1IuN3v3K+AtlXJ8pDixZiA0zjUOyiektGePyhfqZxj/I+qtLhmXCaslyPvRXCMSLAJZvfztQqYk6ZXHYJf0z7WXpLZW6fKFaYJNS25dcMpXThmwkKkwasOcJXMiyeTMwIk8cbabSG/leTWlqjEIskJI9bJdUKv1qJvDlwPPAvgLAA5xWir0bFMu1Skz5EZAV4AllemIO8KMl8BVKs5KPqAXbZGV8IlNVmi0GDqepi9IBt7p8obnAl9kOnCxyTlaiZpmRA0teBA4oR/okrz88UgFfKX19s9KC5itJYLm5vPb6w+OBm5Xe+kAxBE7KctYcBw3KmohMecVmMz+wVZlbrJQwLRJLYQSkzzUp0w1SQwDIen6JTJepAjWvA0uUnmAiMFdZ25StK8uluZ2KFfoBm7z+sMNEohNYKBv01jzAt8q1Dc2NjqjS0GwEyhTt7+yNlnI78KjaUrp8IYcsj6cDY0xx0SbvPncB7121lrInTb2sbcr/DUTR2dxYaZS6qbflItDRCeHO1Pc1lRbDXtZNWACzgRFefzjttYo8mCLFXKvE4hh/XEqdtZflLqWyrljwdli0dRhL2kLGWpsV69AaC2X/pdwptbW+FBdb8QT8ciFFPEmy1iGWVTvEumxWEDlcZ7FhsPa39pQtFIUyKwypvsISako1Xy22prlanAzMTHO12K358+0pEU/CgArBtVUiLgRPSOUYhbpQA7BWCGzXVVngosHlqJFqC6VeGFxjGZrmcrcf4JK/oi5328PGmUSKNf0rsNZWCYSgTN5Wx6WV87OAzArnzT2BYZBoCxlPWQRNNQ6BDLqSXa8DuyMxiMYNb5UmXhPiCsIXgCG6R4sWYgGzyeJCsLR2gNiw8bFuU+7y+sOfUaIPHN1x5w/rxj8H3TqT1RKZDspsMTAXWCMffAZ4N5Mf9vQTU4b9HgZWS0Uu1T3ajmKuFq2yrEgWeOtc0Ee+Ur+/T/qkT/5H8jdcUWci/F2s7gAAAABJRU5ErkJggg==;" parent="1" vertex="1">
          <mxGeometry x="10" y="131" width="48" height="48" as="geometry" />
        </mxCell>
        <mxCell id="Z0VvkoSQmPEsNrfMpDx6-15" value="Cloud Run&#xa;report-excel-generation" style="shape=image;verticalLabelPosition=bottom;labelBackgroundColor=default;verticalAlign=top;aspect=fixed;imageAspect=0;image=data:image/png,iVBORw0KGgoAAAANSUhEUgAAADAAAAAwCAYAAABXAvmHAAAAwnpUWHRSYXcgcHJvZmlsZSB0eXBlIGV4aWYAAHjabVBBEsMgCLzzij5BAQ08xzTpTH/Q5xeFpLHtzrhBdmeDwP56PuDWgZmByyJVa00GVlZsVkhytME58eABCsnuUx9OAa1FH6fU8B/9fAb4p1lVLkFyD2GdBeXIl68gjMn6RL3eIkgjiNCFHAHNn5WqynJ9wrqnGeIHOrHMY//cF9veVuw/hLhTpmRMVH0A6qcANStosJrRTFYzFeMyrNkX8m9PB+AN3UhZFmoIolwAAAGDaUNDUElDQyBwcm9maWxlAAB4nH2RPUjDQBzFX1OlrVQc7CDikKF1souKOJYqFsFCaSu06mBy6Rc0MSQpLo6Ca8HBj8Wqg4uzrg6ugiD4AeIuOCm6SIn/SwotYjw47se7e4+7d4DQqjPV7EsAqmYZ2VRSLBRXxMAr/AghiBhCEjP1dG4hD8/xdQ8fX+/iPMv73J9jUCmZDPCJxAmmGxbxOvHMpqVz3ieOsKqkEJ8TTxh0QeJHrssuv3GuOCzwzIiRz84RR4jFSg/LPcyqhko8TRxVVI3yhYLLCuctzmq9wTr35C8Ml7TlHNdpjiGFRaSRgQgZDdRQh4U4rRopJrK0n/Twjzr+DLlkctXAyDGPDaiQHD/4H/zu1ixPTbpJ4STQ/2LbHzEgsAu0m7b9fWzb7RPA/wxcaV3/RguY/SS92dWiR8DQNnBx3dXkPeByBxh50iVDciQ/TaFcBt7P6JuKwPAtMLDq9tbZx+kDkKeulm6Ag0NgvELZax7vDvb29u+ZTn8/ZTVyobgFxgIAAA12aVRYdFhNTDpjb20uYWRvYmUueG1wAAAAAAA8P3hwYWNrZXQgYmVnaW49Iu+7vyIgaWQ9Ilc1TTBNcENlaGlIenJlU3pOVGN6a2M5ZCI/Pgo8eDp4bXBtZXRhIHhtbG5zOng9ImFkb2JlOm5zOm1ldGEvIiB4OnhtcHRrPSJYTVAgQ29yZSA0LjQuMC1FeGl2MiI+CiA8cmRmOlJERiB4bWxuczpyZGY9Imh0dHA6Ly93d3cudzMub3JnLzE5OTkvMDIvMjItcmRmLXN5bnRheC1ucyMiPgogIDxyZGY6RGVzY3JpcHRpb24gcmRmOmFib3V0PSIiCiAgICB4bWxuczp4bXBNTT0iaHR0cDovL25zLmFkb2JlLmNvbS94YXAvMS4wL21tLyIKICAgIHhtbG5zOnN0RXZ0PSJodHRwOi8vbnMuYWRvYmUuY29tL3hhcC8xLjAvc1R5cGUvUmVzb3VyY2VFdmVudCMiCiAgICB4bWxuczpkYz0iaHR0cDovL3B1cmwub3JnL2RjL2VsZW1lbnRzLzEuMS8iCiAgICB4bWxuczpHSU1QPSJodHRwOi8vd3d3LmdpbXAub3JnL3htcC8iCiAgICB4bWxuczp0aWZmPSJodHRwOi8vbnMuYWRvYmUuY29tL3RpZmYvMS4wLyIKICAgIHhtbG5zOnhtcD0iaHR0cDovL25zLmFkb2JlLmNvbS94YXAvMS4wLyIKICAgeG1wTU06RG9jdW1lbnRJRD0iZ2ltcDpkb2NpZDpnaW1wOjkyMTNjNTRkLWE1MjAtNGIwZC1hYzI5LTgzNmM2YjQ4OWM3MiIKICAgeG1wTU06SW5zdGFuY2VJRD0ieG1wLmlpZDo2YjU1ZjVhNC1mNWY2LTRlNDYtYjk0Ny04NDgwMTk1ZjkyMTAiCiAgIHhtcE1NOk9yaWdpbmFsRG9jdW1lbnRJRD0ieG1wLmRpZDo0Y2I1ZDJiMC1lZGJmLTRlYjUtODdmOC1kMTQxNGRkMzlmM2MiCiAgIGRjOkZvcm1hdD0iaW1hZ2UvcG5nIgogICBHSU1QOkFQST0iMi4wIgogICBHSU1QOlBsYXRmb3JtPSJXaW5kb3dzIgogICBHSU1QOlRpbWVTdGFtcD0iMTc0MTUxMzU1ODE3ODAxNCIKICAgR0lNUDpWZXJzaW9uPSIyLjEwLjM2IgogICB0aWZmOk9yaWVudGF0aW9uPSIxIgogICB4bXA6Q3JlYXRvclRvb2w9IkdJTVAgMi4xMCIKICAgeG1wOk1ldGFkYXRhRGF0ZT0iMjAyNTowMzowOVQxMDo0NTo1NiswMTowMCIKICAgeG1wOk1vZGlmeURhdGU9IjIwMjU6MDM6MDlUMTA6NDU6NTYrMDE6MDAiPgogICA8eG1wTU06SGlzdG9yeT4KICAgIDxyZGY6U2VxPgogICAgIDxyZGY6bGkKICAgICAgc3RFdnQ6YWN0aW9uPSJzYXZlZCIKICAgICAgc3RFdnQ6Y2hhbmdlZD0iLyIKICAgICAgc3RFdnQ6aW5zdGFuY2VJRD0ieG1wLmlpZDo4ZDBkODEwYi1mNjczLTQ1NWEtYjIzNC1jOGQ1OTgwMTU2MzkiCiAgICAgIHN0RXZ0OnNvZnR3YXJlQWdlbnQ9IkdpbXAgMi4xMCAoV2luZG93cykiCiAgICAgIHN0RXZ0OndoZW49IjIwMjUtMDMtMDlUMTA6NDU6NTgiLz4KICAgIDwvcmRmOlNlcT4KICAgPC94bXBNTTpIaXN0b3J5PgogIDwvcmRmOkRlc2NyaXB0aW9uPgogPC9yZGY6UkRGPgo8L3g6eG1wbWV0YT4KICAgICAgICAgICAgICAgICAgICAgICAgICAgICAgICAgICAgICAgICAgICAgICAgICAgICAgICAgICAgICAgICAgICAgICAgICAgICAgICAgICAgICAgICAgICAgICAgICAgIAogICAgICAgICAgICAgICAgICAgICAgICAgICAgICAgICAgICAgICAgICAgICAgICAgICAgICAgICAgICAgICAgICAgICAgICAgICAgICAgICAgICAgICAgICAgICAgICAgICAgCiAgICAgICAgICAgICAgICAgICAgICAgICAgICAgICAgICAgICAgICAgICAgICAgICAgICAgICAgICAgICAgICAgICAgICAgICAgICAgICAgICAgICAgICAgICAgICAgICAgICAKICAgICAgICAgICAgICAgICAgICAgICAgICAgICAgICAgICAgICAgICAgICAgICAgICAgICAgICAgICAgICAgICAgICAgICAgICAgICAgICAgICAgICAgICAgICAgICAgICAgIAogICAgICAgICAgICAgICAgICAgICAgICAgICAgICAgICAgICAgICAgICAgICAgICAgICAgICAgICAgICAgICAgICAgICAgICAgICAgICAgICAgICAgICAgICAgICAgICAgICAgCiAgICAgICAgICAgICAgICAgICAgICAgICAgICAgICAgICAgICAgICAgICAgICAgICAgICAgICAgICAgICAgICAgICAgICAgICAgICAgICAgICAgICAgICAgICAgICAgICAgICAKICAgICAgICAgICAgICAgICAgICAgICAgICAgICAgICAgICAgICAgICAgICAgICAgICAgICAgICAgICAgICAgICAgICAgICAgICAgICAgICAgICAgICAgICAgICAgICAgICAgIAogICAgICAgICAgICAgICAgICAgICAgICAgICAgICAgICAgICAgICAgICAgICAgICAgICAgICAgICAgICAgICAgICAgICAgICAgICAgICAgICAgICAgICAgICAgICAgICAgICAgCiAgICAgICAgICAgICAgICAgICAgICAgICAgICAgICAgICAgICAgICAgICAgICAgICAgICAgICAgICAgICAgICAgICAgICAgICAgICAgICAgICAgICAgICAgICAgICAgICAgICAKICAgICAgICAgICAgICAgICAgICAgICAgICAgICAgICAgICAgICAgICAgICAgICAgICAgICAgICAgICAgICAgICAgICAgICAgICAgICAgICAgICAgICAgICAgICAgICAgICAgIAogICAgICAgICAgICAgICAgICAgICAgICAgICAgICAgICAgICAgICAgICAgICAgICAgICAgICAgICAgICAgICAgICAgICAgICAgICAgICAgICAgICAgICAgICAgICAgICAgICAgCiAgICAgICAgICAgICAgICAgICAgICAgICAgICAgICAgICAgICAgICAgICAgICAgICAgICAgICAgICAgICAgICAgICAgICAgICAgICAgICAgICAgICAgICAgICAgICAgICAgICAKICAgICAgICAgICAgICAgICAgICAgICAgICAgICAgICAgICAgICAgICAgICAgICAgICAgICAgICAgICAgICAgICAgICAgICAgICAgICAgICAgICAgICAgICAgICAgICAgICAgIAogICAgICAgICAgICAgICAgICAgICAgICAgICAgICAgICAgICAgICAgICAgICAgICAgICAgICAgICAgICAgICAgICAgICAgICAgICAgICAgICAgICAgICAgICAgICAgICAgICAgCiAgICAgICAgICAgICAgICAgICAgICAgICAgICAgICAgICAgICAgICAgICAgICAgICAgICAgICAgICAgICAgICAgICAgICAgICAgICAgICAgICAgICAgICAgICAgICAgICAgICAKICAgICAgICAgICAgICAgICAgICAgICAgICAgICAgICAgICAgICAgICAgICAgICAgICAgICAgICAgICAgICAgICAgICAgICAgICAgICAgICAgICAgICAgICAgICAgICAgICAgIAogICAgICAgICAgICAgICAgICAgICAgICAgICAgICAgICAgICAgICAgICAgICAgICAgICAgICAgICAgICAgICAgICAgICAgICAgICAgICAgICAgICAgICAgICAgICAgICAgICAgCiAgICAgICAgICAgICAgICAgICAgICAgICAgICAgICAgICAgICAgICAgICAgICAgICAgICAgICAgICAgICAgICAgICAgICAgICAgICAgICAgICAgICAgICAgICAgICAgICAgICAKICAgICAgICAgICAgICAgICAgICAgICAgICAgICAgICAgICAgICAgICAgICAgICAgICAgICAgICAgICAgICAgICAgICAgICAgICAgICAgICAgICAgICAgICAgICAgICAgICAgIAogICAgICAgICAgICAgICAgICAgICAgICAgICAgICAgICAgICAgICAgICAgICAgICAgICAgICAgICAgICAgICAgICAgICAgICAgICAgICAgICAgICAgICAgICAgICAgICAgICAgCiAgICAgICAgICAgICAgICAgICAgICAgICAgIAo8P3hwYWNrZXQgZW5kPSJ3Ij8+OL4NMQAAAAZiS0dEAAAASwC6rjiDzAAAAAlwSFlzAAALEwAACxMBAJqcGAAAAAd0SU1FB+kDCQktOi7AbWIAAAQNSURBVGje7ZldaBxVFMd/u9lMIp1StPjxYESroFi1CB3UNFabFpTWoJm2Yh+1Dz4pKNVS59UoWumDIPpcKIptby2tH2nj9MP4Ua4gsVoUNBXji4pCyUqTa9LxwRtYxntn7+zOJhH2DwvLuWfOnv/c/5xz7iy00UYb/2uUbAtCqmXANmBfGHiTWUGEVD6wOgy8k4uGgE5sDLgc2A3sDQPvgsWvBBwHRoA9YeCp+SJQrrP+MdADvA6cFVI9JaRamnYKAy8BjgAvAUJIdc1iITBS832OyJiQaoXB9yNgCtgEfCakWrcYCHwJVFO2G4DQsAvfA9/U+HwopNoppOpcSAJ/AucM9kGL/9s137uAl7Wkrl4QAmHgzQCfG5buEFJdZ7AfAqZTReIhLan7FmIHAE4DScrmA30G318AabCvAIaFVM8VLSlXAn8b7BstO3bEEqcLeAU4WKSkXAj8AYwZ7A8IqboN9oPATEbfGQA+LUpSdQnoGm/qsMuBtQb7OHCmTtgbdZXa0aykyo5+o5a7uclC+IBDzMuAV4H9QqqrWk3gK0M/AFgnpOqyNLWLjqPMw1pS97aMQBh4E8B5w9KtwPUG/++Ab3PkcRNwTEj1rJCq0oodmJuL0ujQdd6Ed3LezG7gNS2pK1tBYMS2QbZhFsg7lZaAR3Tj6yuagAT+MthvF1L1GOwTlqbmKqnjQqpn6kkqDwHbXLTU1JV1UzvaRIWck9S7WZJyJhAG3kyS8EWSgOGz0XLZgSRh1nKNy6ecJAwmCaP7z6he0w/keuLfGlGUSu7HujeOKTrKNI0S0GmJ40ygf6hamU24+z9j3b/4wGRMYMvMJTqayP0ScBh4cniX/3uzz8AVuu6nMWnq1P1D1UpGiXXBFLADeDSOzMnnlVAALDHYz8aRP2Gw9+hrGsEPwONx5I8WWUY3ZNR7W3/wciaeAO8BvS7J5yWw3mCbzSiVjzUoma1ZkmlIQv1D1R59UE/jHPCTwf8WYGVOyTwRR/4nrZpG79THyDROxJE/bbA/qMdlF8kcBtY0knweAn2WH3/fcPdLwBaHmBeB57Vkfmu0VFUc5FMC7rccNU9bDvB31Qn7I7A9jvxT83EmXg6sMtiH48ifMtg3Z9yYuVeQa4pI3pXAWqDTpfvq5jVgiTMN7AQ2x5H/a1FvJSqOBNLjTtVyTr7W0rzGdZU5RcEo15t/gHsMS1/Hkf+zwT6o3//USuaobkyFJ+8iIdv8c8jivy0lmV1AWKRk8kpotaH+nzeND/1D1ZuB22p8tseRf4IWo94ObEgdEZ8GVsWRP25pXt26N/TOR/IuO7BeJ74b2BtH/oWMXjEAvADsiSN/3v5iqmQ8wMuAN4F9ceRP1omzBHgxjvyTtNFGG23kwT/6EHPr+GttLAAAAABJRU5ErkJggg==;" parent="1" vertex="1">
          <mxGeometry x="220" y="140" width="48" height="48" as="geometry" />
        </mxCell>
        <mxCell id="Z0VvkoSQmPEsNrfMpDx6-17" value="" style="endArrow=classic;html=1;rounded=0;entryX=0;entryY=0.5;entryDx=0;entryDy=0;" parent="1" edge="1">
          <mxGeometry width="50" height="50" relative="1" as="geometry">
            <mxPoint x="240" y="220" as="sourcePoint" />
            <mxPoint x="420" y="274" as="targetPoint" />
            <Array as="points">
              <mxPoint x="240" y="274" />
            </Array>
          </mxGeometry>
        </mxCell>
        <mxCell id="Z0VvkoSQmPEsNrfMpDx6-18" value="Generate report" style="edgeLabel;html=1;align=center;verticalAlign=middle;resizable=0;points=[];" parent="Z0VvkoSQmPEsNrfMpDx6-17" vertex="1" connectable="0">
          <mxGeometry x="-0.0547" y="1" relative="1" as="geometry">
            <mxPoint x="23" y="1" as="offset" />
          </mxGeometry>
        </mxCell>
        <mxCell id="Z0VvkoSQmPEsNrfMpDx6-19" value="Scheduler" style="rounded=0;whiteSpace=wrap;html=1;fillColor=#d5e8d4;strokeColor=#82b366;" parent="1" vertex="1">
          <mxGeometry x="10" y="60" width="120" height="20" as="geometry" />
        </mxCell>
        <mxCell id="Z0VvkoSQmPEsNrfMpDx6-20" value="Cloud Run" style="rounded=0;whiteSpace=wrap;html=1;fillColor=#dae8fc;strokeColor=#6c8ebf;" parent="1" vertex="1">
          <mxGeometry x="184" y="60" width="120" height="20" as="geometry" />
        </mxCell>
        <mxCell id="Z0VvkoSQmPEsNrfMpDx6-21" value="Buckets" style="rounded=0;whiteSpace=wrap;html=1;fillColor=#fff2cc;strokeColor=#d6b656;" parent="1" vertex="1">
          <mxGeometry x="384" y="60" width="120" height="20" as="geometry" />
        </mxCell>
        <mxCell id="_a0VCblpvbPavzqSTUhA-1" value="Excel Report" style="shape=image;verticalLabelPosition=bottom;labelBackgroundColor=default;verticalAlign=top;aspect=fixed;imageAspect=0;image=data:image/png,iVBORw0KGgoAAAANSUhEUgAAADAAAAAwCAYAAABXAvmHAAAAw3pUWHRSYXcgcHJvZmlsZSB0eXBlIGV4aWYAAHjabVBBDsMgDLvnFXsCJAHCc+jaSfvBnj8DaddWs4RrYuQmoe3zftGjg6OSpmK55hwArVq5QViYaINj0MED4hbulzodBqMkv5eW/f1ej0fA/DSodAqypxvL1ajq+XYL8h9J74ghVg+qHiQ8jegBbY4VcrVyHmHZwhU2D3WSMrKPkPtdC7a3JhSFeZMoASySZwPSTyJpEALuNvoWg1ZYnfdRsZB/e9pBX+C3WRkO5S1zAAABgmlDQ1BJQ0MgcHJvZmlsZQAAeJx9kTtIA0EYhL8kSkQUC1OIWFwRLUQbFbGUKAZBQZIIRi28u5go5M5wl2BjKdgGLHw0vgoba20tbAVB8AFiL1gp2oic/yaBBDEuLPsxuzPszoL/MGtabsMoWHbeiUUj2lxyXgu+EKCZIL2gm25uOj6RoO74vMOn1tt+lVX/3J+jNbXsmuDThEfNnJMXXhIeXs/nFO8Kh8wVPSV8JtznyAWFH5RulPlVcabEfpUZchKxMeGQsJapYaOGzRXHEh4SDqcsW/L9c2VOKd5QbGULZuWe6oUty/ZsXOkyu4gyyTQzaBgUWCVLnn5ZbVFcYrIfqePvLPlnxGWIaxVTHOOsYaGX/Kg/+N2tmx4cKCe1RKDx2fPeuyG4Dd9Fz/s68rzvYwg8waVd9a8dwsiH6MWqFj6Atk04v6pqxg5cbEHHY0539JIUkOlPp+HtVL4pCe030LxQ7q2yz8k9JKSrqWvY24eejGQv1nl3U21v/56p9PcDW01ynTEDLuYAAA5VaVRYdFhNTDpjb20uYWRvYmUueG1wAAAAAAA8P3hwYWNrZXQgYmVnaW49Iu+7vyIgaWQ9Ilc1TTBNcENlaGlIenJlU3pOVGN6a2M5ZCI/Pgo8eDp4bXBtZXRhIHhtbG5zOng9ImFkb2JlOm5zOm1ldGEvIiB4OnhtcHRrPSJYTVAgQ29yZSA0LjQuMC1FeGl2MiI+CiA8cmRmOlJERiB4bWxuczpyZGY9Imh0dHA6Ly93d3cudzMub3JnLzE5OTkvMDIvMjItcmRmLXN5bnRheC1ucyMiPgogIDxyZGY6RGVzY3JpcHRpb24gcmRmOmFib3V0PSIiCiAgICB4bWxuczp4bXBNTT0iaHR0cDovL25zLmFkb2JlLmNvbS94YXAvMS4wL21tLyIKICAgIHhtbG5zOnN0RXZ0PSJodHRwOi8vbnMuYWRvYmUuY29tL3hhcC8xLjAvc1R5cGUvUmVzb3VyY2VFdmVudCMiCiAgICB4bWxuczpkYz0iaHR0cDovL3B1cmwub3JnL2RjL2VsZW1lbnRzLzEuMS8iCiAgICB4bWxuczpHSU1QPSJodHRwOi8vd3d3LmdpbXAub3JnL3htcC8iCiAgICB4bWxuczp0aWZmPSJodHRwOi8vbnMuYWRvYmUuY29tL3RpZmYvMS4wLyIKICAgIHhtbG5zOnhtcD0iaHR0cDovL25zLmFkb2JlLmNvbS94YXAvMS4wLyIKICAgeG1wTU06RG9jdW1lbnRJRD0iZ2ltcDpkb2NpZDpnaW1wOmRiZjAwZTJhLWM1MDAtNDdmOC1hYTZjLWMzZjlkOThlZDQ4ZSIKICAgeG1wTU06SW5zdGFuY2VJRD0ieG1wLmlpZDoyNmIyN2Y1Ny1hNjQ4LTQwNTQtYjQ3My1hNmUwYTI4ODZhOWMiCiAgIHhtcE1NOk9yaWdpbmFsRG9jdW1lbnRJRD0ieG1wLmRpZDo3YTM0MzUxMi1lODNlLTRiZWItOGEzOC04NmJiMTYwNDE2OTciCiAgIGRjOkZvcm1hdD0iaW1hZ2UvcG5nIgogICBHSU1QOkFQST0iMi4wIgogICBHSU1QOlBsYXRmb3JtPSJXaW5kb3dzIgogICBHSU1QOlRpbWVTdGFtcD0iMTc0MTU5MjU2NjQzMDQzNiIKICAgR0lNUDpWZXJzaW9uPSIyLjEwLjM2IgogICB0aWZmOk9yaWVudGF0aW9uPSIxIgogICB4bXA6Q3JlYXRvclRvb2w9IkdJTVAgMi4xMCIKICAgeG1wOk1ldGFkYXRhRGF0ZT0iMjAyNTowMzoxMFQwODo0Mjo0NSswMTowMCIKICAgeG1wOk1vZGlmeURhdGU9IjIwMjU6MDM6MTBUMDg6NDI6NDUrMDE6MDAiPgogICA8eG1wTU06SGlzdG9yeT4KICAgIDxyZGY6U2VxPgogICAgIDxyZGY6bGkKICAgICAgc3RFdnQ6YWN0aW9uPSJzYXZlZCIKICAgICAgc3RFdnQ6Y2hhbmdlZD0iLyIKICAgICAgc3RFdnQ6aW5zdGFuY2VJRD0ieG1wLmlpZDoyN2ZlNmY5Ny0zYzNhLTQ1NDktYTEyYS1hYWRkZTQ3ZmNhZGYiCiAgICAgIHN0RXZ0OnNvZnR3YXJlQWdlbnQ9IkdpbXAgMi4xMCAoV2luZG93cykiCiAgICAgIHN0RXZ0OndoZW49IjIwMjUtMDMtMDlUMTA6NTU6MTAiLz4KICAgICA8cmRmOmxpCiAgICAgIHN0RXZ0OmFjdGlvbj0ic2F2ZWQiCiAgICAgIHN0RXZ0OmNoYW5nZWQ9Ii8iCiAgICAgIHN0RXZ0Omluc3RhbmNlSUQ9InhtcC5paWQ6MDQ0Y2IzODgtMjM2Ni00NzY5LWJmZTgtMDczOTI1MWYxNDhmIgogICAgICBzdEV2dDpzb2Z0d2FyZUFnZW50PSJHaW1wIDIuMTAgKFdpbmRvd3MpIgogICAgICBzdEV2dDp3aGVuPSIyMDI1LTAzLTEwVDA4OjQyOjQ2Ii8+CiAgICA8L3JkZjpTZXE+CiAgIDwveG1wTU06SGlzdG9yeT4KICA8L3JkZjpEZXNjcmlwdGlvbj4KIDwvcmRmOlJERj4KPC94OnhtcG1ldGE+CiAgICAgICAgICAgICAgICAgICAgICAgICAgICAgICAgICAgICAgICAgICAgICAgICAgICAgICAgICAgICAgICAgICAgICAgICAgICAgICAgICAgICAgICAgICAgICAgICAgICAKICAgICAgICAgICAgICAgICAgICAgICAgICAgICAgICAgICAgICAgICAgICAgICAgICAgICAgICAgICAgICAgICAgICAgICAgICAgICAgICAgICAgICAgICAgICAgICAgICAgIAogICAgICAgICAgICAgICAgICAgICAgICAgICAgICAgICAgICAgICAgICAgICAgICAgICAgICAgICAgICAgICAgICAgICAgICAgICAgICAgICAgICAgICAgICAgICAgICAgICAgCiAgICAgICAgICAgICAgICAgICAgICAgICAgICAgICAgICAgICAgICAgICAgICAgICAgICAgICAgICAgICAgICAgICAgICAgICAgICAgICAgICAgICAgICAgICAgICAgICAgICAKICAgICAgICAgICAgICAgICAgICAgICAgICAgICAgICAgICAgICAgICAgICAgICAgICAgICAgICAgICAgICAgICAgICAgICAgICAgICAgICAgICAgICAgICAgICAgICAgICAgIAogICAgICAgICAgICAgICAgICAgICAgICAgICAgICAgICAgICAgICAgICAgICAgICAgICAgICAgICAgICAgICAgICAgICAgICAgICAgICAgICAgICAgICAgICAgICAgICAgICAgCiAgICAgICAgICAgICAgICAgICAgICAgICAgICAgICAgICAgICAgICAgICAgICAgICAgICAgICAgICAgICAgICAgICAgICAgICAgICAgICAgICAgICAgICAgICAgICAgICAgICAKICAgICAgICAgICAgICAgICAgICAgICAgICAgICAgICAgICAgICAgICAgICAgICAgICAgICAgICAgICAgICAgICAgICAgICAgICAgICAgICAgICAgICAgICAgICAgICAgICAgIAogICAgICAgICAgICAgICAgICAgICAgICAgICAgICAgICAgICAgICAgICAgICAgICAgICAgICAgICAgICAgICAgICAgICAgICAgICAgICAgICAgICAgICAgICAgICAgICAgICAgCiAgICAgICAgICAgICAgICAgICAgICAgICAgICAgICAgICAgICAgICAgICAgICAgICAgICAgICAgICAgICAgICAgICAgICAgICAgICAgICAgICAgICAgICAgICAgICAgICAgICAKICAgICAgICAgICAgICAgICAgICAgICAgICAgICAgICAgICAgICAgICAgICAgICAgICAgICAgICAgICAgICAgICAgICAgICAgICAgICAgICAgICAgICAgICAgICAgICAgICAgIAogICAgICAgICAgICAgICAgICAgICAgICAgICAgICAgICAgICAgICAgICAgICAgICAgICAgICAgICAgICAgICAgICAgICAgICAgICAgICAgICAgICAgICAgICAgICAgICAgICAgCiAgICAgICAgICAgICAgICAgICAgICAgICAgICAgICAgICAgICAgICAgICAgICAgICAgICAgICAgICAgICAgICAgICAgICAgICAgICAgICAgICAgICAgICAgICAgICAgICAgICAKICAgICAgICAgICAgICAgICAgICAgICAgICAgICAgICAgICAgICAgICAgICAgICAgICAgICAgICAgICAgICAgICAgICAgICAgICAgICAgICAgICAgICAgICAgICAgICAgICAgIAogICAgICAgICAgICAgICAgICAgICAgICAgICAgICAgICAgICAgICAgICAgICAgICAgICAgICAgICAgICAgICAgICAgICAgICAgICAgICAgICAgICAgICAgICAgICAgICAgICAgCiAgICAgICAgICAgICAgICAgICAgICAgICAgICAgICAgICAgICAgICAgICAgICAgICAgICAgICAgICAgICAgICAgICAgICAgICAgICAgICAgICAgICAgICAgICAgICAgICAgICAKICAgICAgICAgICAgICAgICAgICAgICAgICAgICAgICAgICAgICAgICAgICAgICAgICAgICAgICAgICAgICAgICAgICAgICAgICAgICAgICAgICAgICAgICAgICAgICAgICAgIAogICAgICAgICAgICAgICAgICAgICAgICAgICAgICAgICAgICAgICAgICAgICAgICAgICAgICAgICAgICAgICAgICAgICAgICAgICAgICAgICAgICAgICAgICAgICAgICAgICAgCiAgICAgICAgICAgICAgICAgICAgICAgICAgICAgICAgICAgICAgICAgICAgICAgICAgICAgICAgICAgICAgICAgICAgICAgICAgICAgICAgICAgICAgICAgICAgICAgICAgICAKICAgICAgICAgICAgICAgICAgICAgICAgICAgICAgICAgICAgICAgICAgICAgICAgICAgICAgICAgICAgICAgICAgICAgICAgICAgICAgICAgICAgICAgICAgICAgICAgICAgIAogICAgICAgICAgICAgICAgICAgICAgICAgICAKPD94cGFja2V0IGVuZD0idyI/PoRVxdYAAAAGYktHRAAAAEsAuq44g8wAAAAJcEhZcwAACxMAAAsTAQCanBgAAAAHdElNRQfpAwoHKi5jcK08AAAF4ElEQVRo3u2ZbWxTZRiGr/ecfq7d6fq1tmu3si+c3djQuS0gyDYV0DBNGiOKSog/jNGYaPxnVIz+McYoMTHRBKOIGDAyvxcDCuNjU4KAW1gcDBEHMqQoZLiNbbSvPxTcerqBWOaW7EnOj54nd3Pu933v+3mec0Tu47dIpnAoTPGYJjBN4D+G4Wr9sUBgVlXcVo25M2bh1zy8/k0jCSknF4FhmUAqChGHnwp/IYXZeRTkhAl5AnhcHryaC4Oq0nM6xpvffsyQjE88gQtrZlWN5Npc5GX5uDa3iGtzCsn1h/A7vThsmRgNRgyK+v8fIVUoaCYrkewwVeFSZgby8bm9+J3ZaPZMNKsdIcTk1IAE3lq+kuqS2djM1rQ+aCQryILiG7iSvzzd18u6/Vs4LxOX3oGA04vdkpH21aqbWcUTSx++IuyZ/l52vtjGj2djE+NCqaJ3sI+eMydJNqJszcXZc30MDA3qMJrVht1iQwiBkmLrJpTAe22bWdu2edQ9o1DY8vQaGnd8wavN65POs2T1fc9SW3njxNeBsdxsKBFPUUolUkp97q/MdCVOWywIlbKk6uZRayoQ2M02akquZ5XLp8PkBULpJyDlXxt7QVQS6B/op3fgD4wGIx7NmRLn0zyUFpTo7puNJkLeAA57pi7n1LLSS+CDbZ9x6OhhikIF3F3bAMAvp06w8OWHODs8SNOjq8YksL6jmdXto0VsUVR2rVzHh9s/54Ut7+kwG5Y/T13lvPQR8GguntzzGsFOJ4tr6tCsdrZ/38ofgwM0FFdTEi4eW3BCYElqNUx//xYpclelna68ppwyZ5CevtPsO7ifgcFzfLD7S+JS8kBtFKNqGPfoJUi6RhSF8XJp2wFHRibL5jTwVNMbNLe3oqgKu08e5tZwBdcVlY2LbSiuYWntnSSpGEeGxsLKWiqLynWYsC+UfhtdWLUAt9lG4/5trGp6BwOCZfPvwGIyTw0bzXa4WVG1hFd2bmB3Txdl7lzmzaq+JO6zrl18eLB1tAaESsuza9m0p5kXt67TVb61DzxHjtuX3h0QQhAZIdYbC2ZjNVsvC6eQdI3ob8bLpZXA0PlhvvhuC/LvGrDu+00c/+3EJXEJKTmXiI+6LrQPMkXuXCJ+dY5QZ/chPjr4DXW5ZThsGp90trJpdzMrFi9FMPaq3VNay4rbluruu+1O7rppCYuqalPadloJxBNx3v16I0hJtHoRub4gjZ0tvNXyMQ1zF41ZxAB+7T1Fx+FOXSsRcPo4Fuvh6MlfdJiKgggue1b6CBw8ephPD7TiMtuYV16DzWJlfk4JLccPsPm77dxbf+eY2G3HOtjc3a4rZDvKKtnVuZeXtr6vw6y5fyWFOTPSowEpJRtbmhiID/NgTQMezYnVZCFatRABrNnRyJm+3slro0PxYeZGbqBiRoTZRaX/uFB5DfXtOzjWG+Pbjj0srq4b413RP63DyIEGBEIIXQ4px9XUvyZgNpion62fjoIuH28/9tJFpxkr7q+4lYfuWE5yKfZmulhWHyU6/3YdJtNin5h54MLbC3Uc795//BAbt3+uwy2rj7K3q50furt0mNpZcyjLL5kcA82+2E/s2npIJ+Lo/Nv5obsrpYhLg8WQPz1Spidsqolw0tSlCgUhFMxGM8Vatv4BVXXyELin4hYeiT6YJGLINNu47+boxQlv1MRmME8eAhajCYc1tatkmCyAZTybuHwCw/HzJBIJFCW9EjnQ8xNb9+y8Iuyp3tMc7z9zaQICeGb9K5TnzKTAn0c4O0jA48frdOOyORCKwpW+7v3q5zaajuy9+iLeFzvCvtgRaBsxjKtG8p1+5oRnURLIJ+QL4nW4cWc50ax2DOplnEahO/4T40IJKek/P0RHrJuOWPfFAVwVKrkZWYQyvczMyScSLCI/kIfP5cXrcGMyGDAajJPTRhUEUibo7vud7r7faT1xAPZCXEoSAnIysrjOV0DEX0ieP4jZZE779zEAMf2lfprANIGp38ytnsoE/gQvZeAMIV7hJAAAAABJRU5ErkJggg==;" vertex="1" parent="1">
          <mxGeometry x="430" y="250" width="48" height="48" as="geometry" />
        </mxCell>
        <mxCell id="_a0VCblpvbPavzqSTUhA-2" value="API" style="rounded=0;whiteSpace=wrap;html=1;fillColor=#fff2cc;strokeColor=#d6b656;" vertex="1" parent="1">
          <mxGeometry x="540" y="60" width="120" height="20" as="geometry" />
        </mxCell>
        <mxCell id="_a0VCblpvbPavzqSTUhA-3" value="LimaCharlie API" style="shape=image;verticalLabelPosition=bottom;labelBackgroundColor=default;verticalAlign=top;aspect=fixed;imageAspect=0;image=data:image/png,iVBORw0KGgoAAAANSUhEUgAAADAAAAAwCAYAAABXAvmHAAAAxXpUWHRSYXcgcHJvZmlsZSB0eXBlIGV4aWYAAHjabVBbEsMgCPznFD2CAho8jnl0pjfo8bsqSZNM1nFF1lkB2r6fN70aOCppmiyXnAOgRQtXBBYGaucYtHOHuIT7JU+HwEjJ/6Vlf7/n42EwjooonYxscWG+CkXd325G/pG0ihjB6kbFjYSHEN2gjrZCLjadW5i3cIWNTY3yEnoj0d3vd50wvTXhH2HeJEoAi+RRgLSdSCoCATcZdYshVqyW2VvFQJ7mtIN+QWBZ3vGasr8AAAGCaUNDUElDQyBwcm9maWxlAAB4nH2RO0gDQRiEvyRKRBQLU4hYXBEtRBsVsZQoBkFBkghGLby7mCjkznCXYGMp2AYsfDS+ChtrbS1sBUHwAWIvWCnaiJz/JoEEMS4s+zG7M+zOgv8wa1puwyhYdt6JRSPaXHJeC74QoJkgvaCbbm46PpGg7vi8w6fW236VVf/cn6M1teya4NOER82ckxdeEh5ez+cU7wqHzBU9JXwm3OfIBYUflG6U+VVxpsR+lRlyErEx4ZCwlqlho4bNFccSHhIOpyxb8v1zZU4p3lBsZQtm5Z7qhS3L9mxc6TK7iDLJNDNoGBRYJUueflltUVxish+p4+8s+WfEZYhrFVMc46xhoZf8qD/43a2bHhwoJ7VEoPHZ8967IbgN30XP+zryvO9jCDzBpV31rx3CyIfoxaoWPoC2TTi/qmrGDlxsQcdjTnf0khSQ6U+n4e1UvikJ7TfQvFDurbLPyT0kpKupa9jbh56MZC/WeXdTbW//nqn09wNbTXKdMQMu5gAADylpVFh0WE1MOmNvbS5hZG9iZS54bXAAAAAAADw/eHBhY2tldCBiZWdpbj0i77u/IiBpZD0iVzVNME1wQ2VoaUh6cmVTek5UY3prYzlkIj8+Cjx4OnhtcG1ldGEgeG1sbnM6eD0iYWRvYmU6bnM6bWV0YS8iIHg6eG1wdGs9IlhNUCBDb3JlIDQuNC4wLUV4aXYyIj4KIDxyZGY6UkRGIHhtbG5zOnJkZj0iaHR0cDovL3d3dy53My5vcmcvMTk5OS8wMi8yMi1yZGYtc3ludGF4LW5zIyI+CiAgPHJkZjpEZXNjcmlwdGlvbiByZGY6YWJvdXQ9IiIKICAgIHhtbG5zOnhtcE1NPSJodHRwOi8vbnMuYWRvYmUuY29tL3hhcC8xLjAvbW0vIgogICAgeG1sbnM6c3RFdnQ9Imh0dHA6Ly9ucy5hZG9iZS5jb20veGFwLzEuMC9zVHlwZS9SZXNvdXJjZUV2ZW50IyIKICAgIHhtbG5zOmRjPSJodHRwOi8vcHVybC5vcmcvZGMvZWxlbWVudHMvMS4xLyIKICAgIHhtbG5zOmV4aWY9Imh0dHA6Ly9ucy5hZG9iZS5jb20vZXhpZi8xLjAvIgogICAgeG1sbnM6R0lNUD0iaHR0cDovL3d3dy5naW1wLm9yZy94bXAvIgogICAgeG1sbnM6dGlmZj0iaHR0cDovL25zLmFkb2JlLmNvbS90aWZmLzEuMC8iCiAgICB4bWxuczp4bXA9Imh0dHA6Ly9ucy5hZG9iZS5jb20veGFwLzEuMC8iCiAgIHhtcE1NOkRvY3VtZW50SUQ9ImdpbXA6ZG9jaWQ6Z2ltcDo3MmE5MzhlYy0wYTJiLTRjZDEtOTNkNC05ZWI0NDY3MDYwYjAiCiAgIHhtcE1NOkluc3RhbmNlSUQ9InhtcC5paWQ6NjZjMWUyYjctMzYzZS00YmUxLThiODUtNjEwMWRmNjQxNjJjIgogICB4bXBNTTpPcmlnaW5hbERvY3VtZW50SUQ9InhtcC5kaWQ6OWNmOGQzYmUtZWNlZC00ZGJiLTlkNzktNTIzZmE4ZDhkY2RhIgogICBkYzpGb3JtYXQ9ImltYWdlL3BuZyIKICAgZXhpZjpQaXhlbFhEaW1lbnNpb249IjI3MzIiCiAgIGV4aWY6UGl4ZWxZRGltZW5zaW9uPSIyMDQ4IgogICBHSU1QOkFQST0iMi4wIgogICBHSU1QOlBsYXRmb3JtPSJXaW5kb3dzIgogICBHSU1QOlRpbWVTdGFtcD0iMTc0MTU5MjY1NzA2NzY1OSIKICAgR0lNUDpWZXJzaW9uPSIyLjEwLjM2IgogICB0aWZmOkNvbXByZXNzaW9uPSI1IgogICB0aWZmOk9yaWVudGF0aW9uPSIxIgogICB0aWZmOlJlc29sdXRpb25Vbml0PSIyIgogICB0aWZmOlhSZXNvbHV0aW9uPSIxNDQiCiAgIHRpZmY6WVJlc29sdXRpb249IjE0NCIKICAgeG1wOkNyZWF0b3JUb29sPSJHSU1QIDIuMTAiCiAgIHhtcDpNZXRhZGF0YURhdGU9IjIwMjU6MDM6MTBUMDg6NDQ6MTUrMDE6MDAiCiAgIHhtcDpNb2RpZnlEYXRlPSIyMDI1OjAzOjEwVDA4OjQ0OjE1KzAxOjAwIj4KICAgPHhtcE1NOkhpc3Rvcnk+CiAgICA8cmRmOlNlcT4KICAgICA8cmRmOmxpCiAgICAgIHN0RXZ0OmFjdGlvbj0ic2F2ZWQiCiAgICAgIHN0RXZ0OmNoYW5nZWQ9Ii8iCiAgICAgIHN0RXZ0Omluc3RhbmNlSUQ9InhtcC5paWQ6NjM0OTQwZDctYTQ3ZS00Y2VmLTg5YzctMDMxOTcxMzRjMTBmIgogICAgICBzdEV2dDpzb2Z0d2FyZUFnZW50PSJHaW1wIDIuMTAgKFdpbmRvd3MpIgogICAgICBzdEV2dDp3aGVuPSIyMDIzLTA3LTE1VDE5OjMzOjI5Ii8+CiAgICAgPHJkZjpsaQogICAgICBzdEV2dDphY3Rpb249InNhdmVkIgogICAgICBzdEV2dDpjaGFuZ2VkPSIvIgogICAgICBzdEV2dDppbnN0YW5jZUlEPSJ4bXAuaWlkOjViOTdlMDEwLTI5YWYtNGZjZi05MThjLWVhZGFlNjRlM2M5YSIKICAgICAgc3RFdnQ6c29mdHdhcmVBZ2VudD0iR2ltcCAyLjEwIChXaW5kb3dzKSIKICAgICAgc3RFdnQ6d2hlbj0iMjAyNS0wMy0xMFQwODo0NDoxNyIvPgogICAgPC9yZGY6U2VxPgogICA8L3htcE1NOkhpc3Rvcnk+CiAgPC9yZGY6RGVzY3JpcHRpb24+CiA8L3JkZjpSREY+CjwveDp4bXBtZXRhPgogICAgICAgICAgICAgICAgICAgICAgICAgICAgICAgICAgICAgICAgICAgICAgICAgICAgICAgICAgICAgICAgICAgICAgICAgICAgICAgICAgICAgICAgICAgICAgICAgICAgCiAgICAgICAgICAgICAgICAgICAgICAgICAgICAgICAgICAgICAgICAgICAgICAgICAgICAgICAgICAgICAgICAgICAgICAgICAgICAgICAgICAgICAgICAgICAgICAgICAgICAKICAgICAgICAgICAgICAgICAgICAgICAgICAgICAgICAgICAgICAgICAgICAgICAgICAgICAgICAgICAgICAgICAgICAgICAgICAgICAgICAgICAgICAgICAgICAgICAgICAgIAogICAgICAgICAgICAgICAgICAgICAgICAgICAgICAgICAgICAgICAgICAgICAgICAgICAgICAgICAgICAgICAgICAgICAgICAgICAgICAgICAgICAgICAgICAgICAgICAgICAgCiAgICAgICAgICAgICAgICAgICAgICAgICAgICAgICAgICAgICAgICAgICAgICAgICAgICAgICAgICAgICAgICAgICAgICAgICAgICAgICAgICAgICAgICAgICAgICAgICAgICAKICAgICAgICAgICAgICAgICAgICAgICAgICAgICAgICAgICAgICAgICAgICAgICAgICAgICAgICAgICAgICAgICAgICAgICAgICAgICAgICAgICAgICAgICAgICAgICAgICAgIAogICAgICAgICAgICAgICAgICAgICAgICAgICAgICAgICAgICAgICAgICAgICAgICAgICAgICAgICAgICAgICAgICAgICAgICAgICAgICAgICAgICAgICAgICAgICAgICAgICAgCiAgICAgICAgICAgICAgICAgICAgICAgICAgICAgICAgICAgICAgICAgICAgICAgICAgICAgICAgICAgICAgICAgICAgICAgICAgICAgICAgICAgICAgICAgICAgICAgICAgICAKICAgICAgICAgICAgICAgICAgICAgICAgICAgICAgICAgICAgICAgICAgICAgICAgICAgICAgICAgICAgICAgICAgICAgICAgICAgICAgICAgICAgICAgICAgICAgICAgICAgIAogICAgICAgICAgICAgICAgICAgICAgICAgICAgICAgICAgICAgICAgICAgICAgICAgICAgICAgICAgICAgICAgICAgICAgICAgICAgICAgICAgICAgICAgICAgICAgICAgICAgCiAgICAgICAgICAgICAgICAgICAgICAgICAgICAgICAgICAgICAgICAgICAgICAgICAgICAgICAgICAgICAgICAgICAgICAgICAgICAgICAgICAgICAgICAgICAgICAgICAgICAKICAgICAgICAgICAgICAgICAgICAgICAgICAgICAgICAgICAgICAgICAgICAgICAgICAgICAgICAgICAgICAgICAgICAgICAgICAgICAgICAgICAgICAgICAgICAgICAgICAgIAogICAgICAgICAgICAgICAgICAgICAgICAgICAgICAgICAgICAgICAgICAgICAgICAgICAgICAgICAgICAgICAgICAgICAgICAgICAgICAgICAgICAgICAgICAgICAgICAgICAgCiAgICAgICAgICAgICAgICAgICAgICAgICAgICAgICAgICAgICAgICAgICAgICAgICAgICAgICAgICAgICAgICAgICAgICAgICAgICAgICAgICAgICAgICAgICAgICAgICAgICAKICAgICAgICAgICAgICAgICAgICAgICAgICAgICAgICAgICAgICAgICAgICAgICAgICAgICAgICAgICAgICAgICAgICAgICAgICAgICAgICAgICAgICAgICAgICAgICAgICAgIAogICAgICAgICAgICAgICAgICAgICAgICAgICAgICAgICAgICAgICAgICAgICAgICAgICAgICAgICAgICAgICAgICAgICAgICAgICAgICAgICAgICAgICAgICAgICAgICAgICAgCiAgICAgICAgICAgICAgICAgICAgICAgICAgICAgICAgICAgICAgICAgICAgICAgICAgICAgICAgICAgICAgICAgICAgICAgICAgICAgICAgICAgICAgICAgICAgICAgICAgICAKICAgICAgICAgICAgICAgICAgICAgICAgICAgICAgICAgICAgICAgICAgICAgICAgICAgICAgICAgICAgICAgICAgICAgICAgICAgICAgICAgICAgICAgICAgICAgICAgICAgIAogICAgICAgICAgICAgICAgICAgICAgICAgICAgICAgICAgICAgICAgICAgICAgICAgICAgICAgICAgICAgICAgICAgICAgICAgICAgICAgICAgICAgICAgICAgICAgICAgICAgCiAgICAgICAgICAgICAgICAgICAgICAgICAgICAgICAgICAgICAgICAgICAgICAgICAgICAgICAgICAgICAgICAgICAgICAgICAgICAgICAgICAgICAgICAgICAgICAgICAgICAKICAgICAgICAgICAgICAgICAgICAgICAgICAgCjw/eHBhY2tldCBlbmQ9InciPz4HiJgfAAAABmJLR0QAAABLALquOIPMAAAACXBIWXMAABYlAAAWJQFJUiTwAAAAB3RJTUUH6QMKBywRg0wnhwAABF1JREFUaN7tmd9vFFUUxz+zNrZbnkx88AUVI/6oMiAFIqIvJoMPStEHaSkYjL3QRjEmRCXxQRNfNf6MBtsRf0B/AIm2rImJl39AH7QMvgiakOIfIIQWhdDxgbNmMs7OnLs7xZjsednu9s7ezznne879sdC2trWtFAvCqBqEkecw3gvCqNrqvJWS4G8HTgADmvGbrzm6DfguCKPl/6kDAj8NbATGgjDanjf+sTDyYugHDgIPA1+34oRXAvxx4P7Ex5eA3cCkNX6clo1E/lNgWeJfPwF91vi/X7cMCPxMCh6gCnwCDGbIpj8DHuAB4HgQRrdelwwk4FflDPsnE/J+QODzCvdH4Clr/Lklc0Dga8B9iuE/A5uAJ4CxjMhn2azI6VzpDgRhtEIKdpVi+K/AVpHHGNDtMNUssFWTiYoj/IwS/gzQJ/ChIzzAGmA6CKPbSsmAwNeAHmXk+4C1TUQ+bSeBLXlyqijg75DI9zjIprcEeIDVQC0vExUF/HRGq8yTzdqS4JNONJSTVwBfA+51kE0vMOoAHzs0kpPSneYKHQjCaCXwlbJVnhHZrJMFrAj+LHBEOs1lYIU8/xBwQ8GzkXSnsw0dEPgZ4B4F/GmZfL3Ipitn7FXgY+B1a/w/UnN2yBbjfeBmRSaerDvhZcB/A6x00PwG4EBB5GPgHWC/Nf7VHNlulpqrKjKxxRp/zks8fJdE/m6HyG8Q2RRN+BvQa41/vuiMALwGPK5gOAXs85qA/0XgHxT4LsUzb1rjv6E96GgL2xp/sUPga0rZnE7AH1DCA/yg7ZmyBY9dttNrAO02dhY4BwQK2STt8lIdZTuAY8BNwLuKiD4NXABeAm6UzqGxHsAuhQP1GqjI3v09oFOx+BwE9ktb3KbQ7PfAI9b4VxQ18KisvkV2CZjsqBdDEEajwCLwQYETHvCc/P28vPYXTLYOeEYcz4O/ExgHblHAjwAXvIwOYGRB6VJk4jPgVclEkRMXgWFgyhp/MQO+B5hQRL8Of8gaP/YatLEhcaKqcOJz4BXgI3EiT05XgG9lv3RK3i+X2hqSWsyzhWtBiMetWR0XbeZ2KheptBMDyvr7SyTbqTxYLQDD1viHVdtpGTgiDxY1gmeBt4AXgCmlA50SHC38iNTHv9ponh2WCBdlou6EJ07EkgmvhE65AOwBJtL3TC5Hyh2iW42cvgBeBj5M3w01C2+NP97SoV6+YI9STruAt4EXE3dCzcIPS2fKXYm1Vv+iUYWcdsnrXsnKdkc5LTS6nizjYmtQDi8aOX0J7BM57XCAN9b4quw5341a409IdOYVw7sSV4wTDgWr7WROEkraZEJO3Q2if0wi+adkzsjngw0yPy+OThXJpiUJpeQ0kHHzFgNHBX4+Nb5bWvLODHhjjT/lytDSDxwyYVJOsdw4DKXhZXxdIuMZkT/SDEMZPzElnTgK7BbQRk7Xa+KQbPCMq2yWxIIw2hiE0TKH8d1BGG2ibW1rW9v+1/Y3nvd8B2oL9RwAAAAASUVORK5CYII=;" vertex="1" parent="1">
          <mxGeometry x="570" y="140" width="48" height="48" as="geometry" />
        </mxCell>
      </root>
    </mxGraphModel>
  </diagram>
</mxfile>
